<svg width="177px" height="200px" viewBox="0 0 177 200" version="1.1" xmlns="http://www.w3.org/2000/svg" xmlns:xlink="http://www.w3.org/1999/xlink">
 <!-- Generator: Sketch 44 (41411) - http://www.bohemiancoding.com/sketch -->
 <desc>Created with Sketch.</desc>
 <defs></defs>
 <g id="Page-1" stroke="none" stroke-width="1" fill="none" fill-rule="evenodd">
  <g id="logo" fill-rule="nonzero" fill="#FFFFFF">
   <path d="M83.1641791,123.880597 C65.7910448,123.880597 51.7014925,137.970149 51.7014925,155.343284 C51.7014925,172.716418 65.7910448,186.80597 83.1641791,186.80597 C100.537313,186.80597 114.626866,172.716418 114.626866,155.343284 C114.626866,137.970149 100.537313,123.880597 83.1641791,123.880597 Z" id="Shape"></path>
   <path d="M122.328358,117.850746 C131.641791,127.58209 137.373134,140.776119 137.373134,155.343284 C137.373134,173.791045 128.179104,190.029851 114.149254,199.820896 C140.119403,191.820896 161.61194,172.298507 171.223881,148.656716 C184.537313,115.940299 172.119403,91.3432836 151.343284,69.0149254 C152,71.880597 152.358209,74.9253731 152.358209,77.9701493 C152.298507,96.9552239 139.641791,112.895522 122.328358,117.850746 Z" id="Shape"></path>
   <path d="M86.7462687,78.0298507 C86.7462687,91.3432836 97.5522388,102.089552 110.80597,102.089552 C124.059701,102.089552 134.925373,91.2835821 134.925373,78.0298507 C134.925373,64.7164179 124.119403,53.9701493 110.865672,53.9701493 C97.6119403,53.9701493 86.7462687,64.7164179 86.7462687,78.0298507 Z" id="Shape"></path>
   <path d="M41.6716418,190.268657 C33.7313433,180.835821 28.9552239,168.656716 28.9552239,155.343284 C28.9552239,127.58209 49.7910448,104.716418 76.7164179,101.552239 C72.119403,94.8656716 69.3731343,86.7462687 69.3731343,78.0298507 C69.3731343,55.1044776 87.9402985,36.5970149 110.865672,36.5970149 C112.776119,36.5970149 114.626866,36.7164179 116.41791,36.9552239 C102.865672,25.2537313 89.3134328,13.3731343 78.6268657,0.417910448 C84.0597015,57.2537313 26.8656716,36.5970149 5.67164179,89.0149254 C-8.47761194,124.119403 4.29850746,167.522388 41.6716418,190.268657 Z" id="Shape"></path>
  </g>
 </g>
</svg>